<svg width="139" height="54" viewBox="0 0 139 54" fill="none" xmlns="http://www.w3.org/2000/svg">
<rect width="54" height="54" rx="27" fill="white"/>
<path d="M43.9568 24.8807C42.8487 25.4738 41.9909 26.5224 41.243 27.5019C39.5884 29.6687 37.9572 31.8719 36.4933 34.1709C34.9886 36.534 33.462 39.073 33.1728 41.907" stroke="#FFD15C" stroke-width="9.47368" stroke-linecap="round"/>
<path d="M21 41C22.7022 39.1541 24.3671 37.4163 26.2835 35.8901C32.1215 31.2405 38.3944 26.756 45 24" stroke="#FF9933" stroke-width="9.47368" stroke-linecap="round"/>
<path d="M11 35.5338C12.4994 34.8464 13.9088 33.7305 15.2603 32.7079C17.4008 31.0885 19.4814 29.3559 21.5729 27.644C25.6549 24.3032 29.7487 20.9461 34.0368 18.012C34.9927 17.358 36.613 15.9662 37.8186 16.0006C38.6608 16.0247 36.3009 19.1057 36.2332 19.1877C33.4892 22.5136 30.4482 25.3904 27.7933 28.848C25.3013 32.0937 22.8527 35.5345 21.1521 39.507C21.1031 39.6215 20.1587 41.6465 20.9503 40.7889" stroke="#EC4F89" stroke-width="9.47368" stroke-linecap="round"/>
<path d="M12.8071 18.3795C15.8255 16.4189 18.7967 14.4242 21.9528 12.7897C24.2443 11.6029 26.8812 10.2399 29.4203 10.0054C31.0871 9.85142 28.6518 13.0592 28.4332 13.3466C25.3534 17.3949 21.6209 20.7006 18.2713 24.4063C15.7411 27.2055 11.6899 32.1835 10 36" stroke="#4900E4" stroke-width="9.47368" stroke-linecap="round"/>
<path fill-rule="evenodd" clip-rule="evenodd" d="M38.106 20.3302C38.7294 19.4889 38.4099 18.3249 37.5112 17.7875C36.5731 17.2266 35.3687 17.5677 34.666 18.4049C33.9306 19.2809 33.0574 20.0284 32.079 20.6135C30.5347 21.5369 28.783 22.023 26.9999 22.023C25.2168 22.023 23.465 21.5369 21.9208 20.6135C20.9424 20.0284 20.0692 19.2809 19.3338 18.4049C18.6311 17.5677 17.4267 17.2266 16.4886 17.7875C15.5899 18.3249 15.2704 19.4889 15.8938 20.3302C16.3068 20.8876 16.758 21.4126 17.2435 21.9012L17.2435 34.0001C17.2435 34.9702 18.0299 35.7565 18.9999 35.7565C19.9699 35.7565 20.7563 34.9702 20.7563 34.0001L20.7563 24.4803C22.6922 25.4793 24.8292 26.0021 26.9999 26.0021C29.1706 26.0021 31.3075 25.4794 33.2433 24.4803V34.0005C33.2433 34.9705 34.0297 35.7569 34.9998 35.7569C35.9698 35.7569 36.7562 34.9705 36.7562 34.0005V21.9013C37.2417 21.4127 37.693 20.8876 38.106 20.3302Z" fill="white"/>
<path d="M73.7816 21.8V33H71.2056V23.912H66.1496V33H63.5736V21.8H73.7816ZM81.5628 33.192C80.4001 33.192 79.3495 32.9413 78.4108 32.44C77.4828 31.9387 76.7521 31.2507 76.2188 30.376C75.6961 29.4907 75.4348 28.4987 75.4348 27.4C75.4348 26.3013 75.6961 25.3147 76.2188 24.44C76.7521 23.5547 77.4828 22.8613 78.4108 22.36C79.3495 21.8587 80.4001 21.608 81.5628 21.608C82.7255 21.608 83.7708 21.8587 84.6988 22.36C85.6268 22.8613 86.3575 23.5547 86.8908 24.44C87.4241 25.3147 87.6908 26.3013 87.6908 27.4C87.6908 28.4987 87.4241 29.4907 86.8908 30.376C86.3575 31.2507 85.6268 31.9387 84.6988 32.44C83.7708 32.9413 82.7255 33.192 81.5628 33.192ZM81.5628 30.984C82.2241 30.984 82.8215 30.8347 83.3548 30.536C83.8881 30.2267 84.3041 29.8 84.6028 29.256C84.9121 28.712 85.0668 28.0933 85.0668 27.4C85.0668 26.7067 84.9121 26.088 84.6028 25.544C84.3041 25 83.8881 24.5787 83.3548 24.28C82.8215 23.9707 82.2241 23.816 81.5628 23.816C80.9015 23.816 80.3041 23.9707 79.7708 24.28C79.2375 24.5787 78.8161 25 78.5068 25.544C78.2081 26.088 78.0588 26.7067 78.0588 27.4C78.0588 28.0933 78.2081 28.712 78.5068 29.256C78.8161 29.8 79.2375 30.2267 79.7708 30.536C80.3041 30.8347 80.9015 30.984 81.5628 30.984ZM103.748 21.8V33H101.172V23.912H96.1164V33H93.5404V21.8H103.748ZM116.298 21.8L111.53 30.664C111.071 31.5173 110.516 32.1627 109.866 32.6C109.226 33.0373 108.527 33.256 107.77 33.256C107.183 33.256 106.575 33.128 105.946 32.872L106.57 30.904C107.018 31.0427 107.391 31.112 107.69 31.112C108.01 31.112 108.298 31.0373 108.554 30.888C108.81 30.728 109.044 30.4827 109.258 30.152L109.354 30.024L104.938 21.8H107.706L110.682 27.816L113.754 21.8H116.298ZM125.781 23.912H122.197V33H119.637V23.912H116.069V21.8H125.781V23.912ZM127.07 21.8H129.646V29.096L134.99 21.8H137.422V33H134.862V25.72L129.518 33H127.07V21.8Z" fill="black"/>
</svg>
