<svg width="114" height="44" viewBox="0 0 114 44" fill="none" xmlns="http://www.w3.org/2000/svg">
<rect width="44" height="44" rx="22" fill="white"/>
<path d="M35.9673 19.6763C35.1006 20.1771 34.3598 20.6522 33.771 21.4724C32.4684 23.2869 31.3232 25.2274 30.1681 27.1508C28.9808 29.1278 27.7018 31.5592 27.4577 33.9205" stroke="#FFD15C" stroke-width="7.78822" stroke-linecap="round"/>
<path d="M17 33C18.4185 31.4799 19.403 30.2569 21 29C25.8651 25.1709 31.4954 21.2696 37 19" stroke="#FF9933" stroke-width="7.78822" stroke-linecap="round"/>
<path d="M9 28.9999C10.2217 28.45 10.8988 26.8179 12 25.9999C13.7441 24.7044 16.2958 23.3694 18 21.9999C21.326 19.3272 24.506 17.3472 28 14.9999C28.7789 14.4766 30.0177 12.9723 31 12.9999C31.6862 13.0191 30.0552 15.9343 30 15.9999C27.7641 18.6606 25.1632 20.2338 23 22.9999C20.9694 25.5964 18.3857 28.8219 17 31.9999C16.9601 32.0915 16.355 33.6859 17 32.9999" stroke="#EC4F89" stroke-width="7.78822" stroke-linecap="round"/>
<path d="M10 15C12.5657 13.4164 15.3173 11.3202 18 9.99999C19.9478 9.04142 22.8417 8.18941 25 7.99999C26.4167 7.87565 24.1858 10.7679 24 11C21.3822 14.2698 17.8472 17.0069 15 20C12.8493 22.2608 9.43638 25.9174 8 29" stroke="#4900E4" stroke-width="7.78822" stroke-linecap="round"/>
<path fill-rule="evenodd" clip-rule="evenodd" d="M31.6318 16.2939C32.1391 15.6023 31.8775 14.6499 31.1429 14.2073C30.369 13.7411 29.3724 14.0232 28.7936 14.717C28.1902 15.4402 27.4741 16.0575 26.6719 16.5407C25.4034 17.3049 23.9645 17.7072 22.4998 17.7072C21.0351 17.7072 19.5962 17.3049 18.3277 16.5407C17.5255 16.0574 16.8094 15.4402 16.206 14.717C15.6272 14.0232 14.6306 13.7411 13.8567 14.2073C13.1221 14.6499 12.8605 15.6023 13.3678 16.2939C13.7293 16.7868 14.1266 17.2492 14.5559 17.6771L14.5559 28.0002C14.5559 28.7977 15.2023 29.4442 15.9998 29.4442C16.7973 29.4442 17.4437 28.7977 17.4437 28.0002V19.7782C19.0147 20.5807 20.7438 21.0002 22.4998 21.0002C24.2558 21.0002 25.9849 20.5807 27.5559 19.7782L27.5559 28.0002C27.5559 28.7977 28.2023 29.4442 28.9998 29.4442C29.7973 29.4442 30.4437 28.7977 30.4437 28.0002L30.4437 17.6771C30.873 17.2492 31.2703 16.7868 31.6318 16.2939Z" fill="white"/>
<path d="M59.4159 17.7926V27H57.2982V19.5288H53.1417V27H51.024V17.7926H59.4159ZM65.8128 27.1578C64.857 27.1578 63.9932 26.9518 63.2216 26.5396C62.4587 26.1275 61.858 25.5619 61.4195 24.8428C60.9899 24.115 60.775 23.2995 60.775 22.3963C60.775 21.4931 60.9899 20.682 61.4195 19.9629C61.858 19.2351 62.4587 18.6651 63.2216 18.253C63.9932 17.8408 64.857 17.6348 65.8128 17.6348C66.7686 17.6348 67.628 17.8408 68.3909 18.253C69.1538 18.6651 69.7544 19.2351 70.1929 19.9629C70.6313 20.682 70.8505 21.4931 70.8505 22.3963C70.8505 23.2995 70.6313 24.115 70.1929 24.8428C69.7544 25.5619 69.1538 26.1275 68.3909 26.5396C67.628 26.9518 66.7686 27.1578 65.8128 27.1578ZM65.8128 25.3427C66.3565 25.3427 66.8475 25.2199 67.286 24.9744C67.7244 24.7201 68.0664 24.3693 68.3119 23.9221C68.5662 23.4749 68.6934 22.9663 68.6934 22.3963C68.6934 21.8263 68.5662 21.3177 68.3119 20.8705C68.0664 20.4233 67.7244 20.0769 67.286 19.8314C66.8475 19.5771 66.3565 19.4499 65.8128 19.4499C65.2691 19.4499 64.778 19.5771 64.3396 19.8314C63.9011 20.0769 63.5548 20.4233 63.3005 20.8705C63.0549 21.3177 62.9322 21.8263 62.9322 22.3963C62.9322 22.9663 63.0549 23.4749 63.3005 23.9221C63.5548 24.3693 63.9011 24.7201 64.3396 24.9744C64.778 25.2199 65.2691 25.3427 65.8128 25.3427ZM84.0514 17.7926V27H81.9337V19.5288H77.7772V27H75.6595V17.7926H84.0514ZM94.3679 17.7926L90.4482 25.0796C90.0711 25.7811 89.6152 26.3116 89.0803 26.6712C88.5541 27.0307 87.9797 27.2105 87.3572 27.2105C86.8749 27.2105 86.375 27.1052 85.8577 26.8948L86.3706 25.2769C86.7389 25.3909 87.0459 25.4479 87.2914 25.4479C87.5545 25.4479 87.7912 25.3865 88.0017 25.2637C88.2121 25.1322 88.405 24.9305 88.5804 24.6587L88.6593 24.5535L85.029 17.7926H87.3045L89.7511 22.7383L92.2765 17.7926H94.3679ZM102.164 19.5288H99.2181V27H97.1136V19.5288H94.1803V17.7926H102.164V19.5288ZM103.224 17.7926H105.341V23.7906L109.735 17.7926H111.734V27H109.629V21.0152L105.236 27H103.224V17.7926Z" fill="black"/>
</svg>
