<svg width="152" height="69" viewBox="0 0 152 69" fill="none" xmlns="http://www.w3.org/2000/svg">
<path d="M149.6 67.4001C150.926 67.4001 152 66.3256 152 65.0001C152 63.6746 150.926 62.6001 149.6 62.6001V67.4001ZM2.4 62.6001C1.07452 62.6001 0 63.6746 0 65.0001C0 66.3256 1.07452 67.4001 2.4 67.4001V62.6001ZM2.44066 67.4001C3.76614 67.4001 4.84066 66.3256 4.84066 65.0001C4.84066 63.6746 3.76614 62.6001 2.44066 62.6001V67.4001ZM17.0794 62.6001C15.7538 62.6001 14.6794 63.6746 14.6794 65.0001C14.6794 66.3256 15.7538 67.4001 17.0794 67.4001V62.6001ZM17.1606 67.4001C18.4862 67.4001 19.5606 66.3256 19.5606 65.0001C19.5606 63.6746 18.4862 62.6001 17.1606 62.6001V67.4001ZM31.7994 62.6001C30.4738 62.6001 29.3994 63.6746 29.3994 65.0001C29.3994 66.3256 30.4738 67.4001 31.7994 67.4001V62.6001ZM31.8806 67.4001C33.2062 67.4001 34.2806 66.3256 34.2806 65.0001C34.2806 63.6746 33.2062 62.6001 31.8806 62.6001V67.4001ZM46.5194 62.6001C45.1938 62.6001 44.1194 63.6746 44.1194 65.0001C44.1194 66.3256 45.1938 67.4001 46.5194 67.4001V62.6001ZM46.6006 67.4001C47.9262 67.4001 49.0006 66.3256 49.0006 65.0001C49.0006 63.6746 47.9262 62.6001 46.6006 62.6001V67.4001ZM61.2394 62.6001C59.9138 62.6001 58.8394 63.6746 58.8394 65.0001C58.8394 66.3256 59.9138 67.4001 61.2394 67.4001V62.6001ZM61.3206 67.4001C62.6462 67.4001 63.7206 66.3256 63.7206 65.0001C63.7206 63.6746 62.6462 62.6001 61.3206 62.6001V67.4001ZM75.9594 62.6001C74.6338 62.6001 73.5594 63.6746 73.5594 65.0001C73.5594 66.3256 74.6338 67.4001 75.9594 67.4001V62.6001ZM76.0406 67.4001C77.3662 67.4001 78.4406 66.3256 78.4406 65.0001C78.4406 63.6746 77.3662 62.6001 76.0406 62.6001V67.4001ZM90.6792 62.6001C89.3536 62.6001 88.2792 63.6746 88.2792 65.0001C88.2792 66.3256 89.3536 67.4001 90.6792 67.4001V62.6001ZM90.7608 67.4001C92.0864 67.4001 93.1608 66.3256 93.1608 65.0001C93.1608 63.6746 92.0864 62.6001 90.7608 62.6001V67.4001ZM105.399 62.6001C104.074 62.6001 102.999 63.6746 102.999 65.0001C102.999 66.3256 104.074 67.4001 105.399 67.4001V62.6001ZM105.481 67.4001C106.806 67.4001 107.881 66.3256 107.881 65.0001C107.881 63.6746 106.806 62.6001 105.481 62.6001V67.4001ZM120.119 62.6001C118.794 62.6001 117.719 63.6746 117.719 65.0001C117.719 66.3256 118.794 67.4001 120.119 67.4001V62.6001ZM120.201 67.4001C121.526 67.4001 122.601 66.3256 122.601 65.0001C122.601 63.6746 121.526 62.6001 120.201 62.6001V67.4001ZM134.839 62.6001C133.514 62.6001 132.439 63.6746 132.439 65.0001C132.439 66.3256 133.514 67.4001 134.839 67.4001V62.6001ZM134.921 67.4001C136.246 67.4001 137.321 66.3256 137.321 65.0001C137.321 63.6746 136.246 62.6001 134.921 62.6001V67.4001ZM149.559 62.6001C148.234 62.6001 147.159 63.6746 147.159 65.0001C147.159 66.3256 148.234 67.4001 149.559 67.4001V62.6001ZM2.4 67.4001H2.44066V62.6001H2.4V67.4001ZM17.0794 67.4001H17.1606V62.6001H17.0794V67.4001ZM31.7994 67.4001H31.8806V62.6001H31.7994V67.4001ZM46.5194 67.4001H46.6006V62.6001H46.5194V67.4001ZM61.2394 67.4001H61.3206V62.6001H61.2394V67.4001ZM75.9594 67.4001H76.0406V62.6001H75.9594V67.4001ZM90.6792 67.4001H90.7608V62.6001H90.6792V67.4001ZM105.399 67.4001H105.481V62.6001H105.399V67.4001ZM120.119 67.4001H120.201V62.6001H120.119V67.4001ZM134.839 67.4001H134.921V62.6001H134.839V67.4001ZM149.559 67.4001H149.6V62.6001H149.559V67.4001Z" fill="#F4F5FA"/>
<path d="M76 69C78.2091 69 80 67.2091 80 65C80 62.7909 78.2091 61 76 61C73.7909 61 72 62.7909 72 65C72 67.2091 73.7909 69 76 69Z" fill="#4900E4"/>
<path d="M92 16.2C92 28.2 76 38.6 76 38.6C76 38.6 60 28.2 60 16.2C60 7.36339 67.1634 0.199951 76 0.199951C84.8368 0.199951 92 7.36339 92 16.2Z" fill="#4900E4"/>
<path d="M77.8115 10.6001V21.8001H75.2195V12.6801H72.9795V10.6001H77.8115Z" fill="white"/>
</svg>
