<svg width="190" height="86" viewBox="0 0 190 86" fill="none" xmlns="http://www.w3.org/2000/svg">
<path d="M187 84C188.657 84 190 82.6569 190 81C190 79.3431 188.657 78 187 78V84ZM3 78C1.34315 78 0 79.3431 0 81C0 82.6569 1.34315 84 3 84V78ZM3.05083 84C4.70768 84 6.05083 82.6569 6.05083 81C6.05083 79.3431 4.70768 78 3.05083 78V84ZM21.3492 78C19.6923 78 18.3492 79.3431 18.3492 81C18.3492 82.6569 19.6923 84 21.3492 84V78ZM21.4508 84C23.1077 84 24.4508 82.6569 24.4508 81C24.4508 79.3431 23.1077 78 21.4508 78V84ZM39.7492 78C38.0923 78 36.7492 79.3431 36.7492 81C36.7492 82.6569 38.0923 84 39.7492 84V78ZM39.8508 84C41.5077 84 42.8508 82.6569 42.8508 81C42.8508 79.3431 41.5077 78 39.8508 78V84ZM58.1492 78C56.4923 78 55.1492 79.3431 55.1492 81C55.1492 82.6569 56.4923 84 58.1492 84V78ZM58.2508 84C59.9077 84 61.2508 82.6569 61.2508 81C61.2508 79.3431 59.9077 78 58.2508 78V84ZM76.5492 78C74.8923 78 73.5492 79.3431 73.5492 81C73.5492 82.6569 74.8923 84 76.5492 84V78ZM76.6508 84C78.3077 84 79.6508 82.6569 79.6508 81C79.6508 79.3431 78.3077 78 76.6508 78V84ZM94.9492 78C93.2923 78 91.9492 79.3431 91.9492 81C91.9492 82.6569 93.2923 84 94.9492 84V78ZM95.0508 84C96.7077 84 98.0508 82.6569 98.0508 81C98.0508 79.3431 96.7077 78 95.0508 78V84ZM113.349 78C111.692 78 110.349 79.3431 110.349 81C110.349 82.6569 111.692 84 113.349 84V78ZM113.451 84C115.108 84 116.451 82.6569 116.451 81C116.451 79.3431 115.108 78 113.451 78V84ZM131.749 78C130.092 78 128.749 79.3431 128.749 81C128.749 82.6569 130.092 84 131.749 84V78ZM131.851 84C133.508 84 134.851 82.6569 134.851 81C134.851 79.3431 133.508 78 131.851 78V84ZM150.149 78C148.492 78 147.149 79.3431 147.149 81C147.149 82.6569 148.492 84 150.149 84V78ZM150.251 84C151.908 84 153.251 82.6569 153.251 81C153.251 79.3431 151.908 78 150.251 78V84ZM168.549 78C166.892 78 165.549 79.3431 165.549 81C165.549 82.6569 166.892 84 168.549 84V78ZM168.651 84C170.308 84 171.651 82.6569 171.651 81C171.651 79.3431 170.308 78 168.651 78V84ZM186.949 78C185.292 78 183.949 79.3431 183.949 81C183.949 82.6569 185.292 84 186.949 84V78ZM3 84H3.05083V78H3V84ZM21.3492 84H21.4508V78H21.3492V84ZM39.7492 84H39.8508V78H39.7492V84ZM58.1492 84H58.2508V78H58.1492V84ZM76.5492 84H76.6508V78H76.5492V84ZM94.9492 84H95.0508V78H94.9492V84ZM113.349 84H113.451V78H113.349V84ZM131.749 84H131.851V78H131.749V84ZM150.149 84H150.251V78H150.149V84ZM168.549 84H168.651V78H168.549V84ZM186.949 84H187V78H186.949V84Z" fill="#F4F5FA"/>
<circle cx="95" cy="81" r="5" fill="#FF9933"/>
<path d="M115 20C115 35 95 48 95 48C95 48 75 35 75 20C75 8.9543 83.9543 0 95 0C106.046 0 115 8.9543 115 20Z" fill="#FF9933"/>
<path d="M96.402 18.7C97.6287 18.9 98.5687 19.36 99.222 20.08C99.8754 20.7867 100.202 21.6667 100.202 22.72C100.202 23.5333 99.9887 24.2867 99.562 24.98C99.1354 25.66 98.482 26.2067 97.602 26.62C96.7354 27.0333 95.6687 27.24 94.402 27.24C93.4154 27.24 92.442 27.1133 91.482 26.86C90.5354 26.5933 89.7287 26.22 89.062 25.74L90.322 23.26C90.8554 23.66 91.4687 23.9733 92.162 24.2C92.8687 24.4133 93.5887 24.52 94.322 24.52C95.1354 24.52 95.7754 24.3667 96.242 24.06C96.7087 23.74 96.942 23.2933 96.942 22.72C96.942 21.5733 96.0687 21 94.322 21H92.842V18.86L95.722 15.6H89.762V13H99.562V15.1L96.402 18.7Z" fill="white"/>
</svg>
