<svg width="124" height="69" viewBox="0 0 124 69" fill="none" xmlns="http://www.w3.org/2000/svg">
<path d="M3.0792 62.3999C1.75368 62.3999 0.679199 63.4744 0.679199 64.7999C0.679199 66.1254 1.75368 67.1999 3.0792 67.1999V62.3999ZM3.16048 67.1999C4.486 67.1999 5.56048 66.1254 5.56048 64.7999C5.56048 63.4744 4.486 62.3999 3.16048 62.3999V67.1999ZM17.7992 62.3999C16.4737 62.3999 15.3992 63.4744 15.3992 64.7999C15.3992 66.1254 16.4737 67.1999 17.7992 67.1999V62.3999ZM17.8805 67.1999C19.206 67.1999 20.2805 66.1254 20.2805 64.7999C20.2805 63.4744 19.206 62.3999 17.8805 62.3999V67.1999ZM32.5192 62.3999C31.1937 62.3999 30.1192 63.4744 30.1192 64.7999C30.1192 66.1254 31.1937 67.1999 32.5192 67.1999V62.3999ZM32.6005 67.1999C33.926 67.1999 35.0005 66.1254 35.0005 64.7999C35.0005 63.4744 33.926 62.3999 32.6005 62.3999V67.1999ZM47.2392 62.3999C45.9137 62.3999 44.8392 63.4744 44.8392 64.7999C44.8392 66.1254 45.9137 67.1999 47.2392 67.1999V62.3999ZM47.3205 67.1999C48.646 67.1999 49.7205 66.1254 49.7205 64.7999C49.7205 63.4744 48.646 62.3999 47.3205 62.3999V67.1999ZM61.9592 62.3999C60.6337 62.3999 59.5592 63.4744 59.5592 64.7999C59.5592 66.1254 60.6337 67.1999 61.9592 67.1999V62.3999ZM62.0405 67.1999C63.366 67.1999 64.4405 66.1254 64.4405 64.7999C64.4405 63.4744 63.366 62.3999 62.0405 62.3999V67.1999ZM76.679 62.3999C75.3534 62.3999 74.279 63.4744 74.279 64.7999C74.279 66.1254 75.3534 67.1999 76.679 67.1999V62.3999ZM76.7606 67.1999C78.0862 67.1999 79.1606 66.1254 79.1606 64.7999C79.1606 63.4744 78.0862 62.3999 76.7606 62.3999V67.1999ZM91.399 62.3999C90.0734 62.3999 88.999 63.4744 88.999 64.7999C88.999 66.1254 90.0734 67.1999 91.399 67.1999V62.3999ZM91.4806 67.1999C92.8062 67.1999 93.8806 66.1254 93.8806 64.7999C93.8806 63.4744 92.8062 62.3999 91.4806 62.3999V67.1999ZM106.119 62.3999C104.793 62.3999 103.719 63.4744 103.719 64.7999C103.719 66.1254 104.793 67.1999 106.119 67.1999V62.3999ZM106.201 67.1999C107.526 67.1999 108.601 66.1254 108.601 64.7999C108.601 63.4744 107.526 62.3999 106.201 62.3999V67.1999ZM120.839 62.3999C119.513 62.3999 118.439 63.4744 118.439 64.7999C118.439 66.1254 119.513 67.1999 120.839 67.1999V62.3999ZM120.921 67.1999C122.246 67.1999 123.321 66.1254 123.321 64.7999C123.321 63.4744 122.246 62.3999 120.921 62.3999V67.1999ZM3.0792 67.1999H3.16048V62.3999H3.0792V67.1999ZM17.7992 67.1999H17.8805V62.3999H17.7992V67.1999ZM32.5192 67.1999H32.6005V62.3999H32.5192V67.1999ZM47.2392 67.1999H47.3205V62.3999H47.2392V67.1999ZM61.9592 67.1999H62.0405V62.3999H61.9592V67.1999ZM76.679 67.1999H76.7606V62.3999H76.679V67.1999ZM91.399 67.1999H91.4806V62.3999H91.399V67.1999ZM106.119 67.1999H106.201V62.3999H106.119V67.1999ZM120.839 67.1999H120.921V62.3999H120.839V67.1999Z" fill="#F4F5FA"/>
<path d="M62 68.8C64.2091 68.8 66 67.0092 66 64.8C66 62.5909 64.2091 60.8 62 60.8C59.7909 60.8 58 62.5909 58 64.8C58 67.0092 59.7909 68.8 62 68.8Z" fill="#FF9933"/>
<path d="M78 16C78 28 62 38.4 62 38.4C62 38.4 46 28 46 16C46 7.16344 53.1634 0 62 0C70.8368 0 78 7.16344 78 16Z" fill="#FF9933"/>
<path d="M63.1215 14.9599C64.1029 15.1199 64.8549 15.4879 65.3775 16.0639C65.9002 16.6293 66.1615 17.3333 66.1615 18.1759C66.1615 18.8265 65.9909 19.4293 65.6495 19.9839C65.3082 20.5279 64.7855 20.9653 64.0815 21.2959C63.3882 21.6265 62.5349 21.7919 61.5215 21.7919C60.7322 21.7919 59.9535 21.6905 59.1855 21.4879C58.4282 21.2745 57.7829 20.9759 57.2495 20.5919L58.2575 18.6079C58.6842 18.9279 59.1749 19.1785 59.7295 19.3599C60.2949 19.5305 60.8709 19.6159 61.4575 19.6159C62.1082 19.6159 62.6202 19.4933 62.9935 19.2479C63.3669 18.9919 63.5535 18.6345 63.5535 18.1759C63.5535 17.2585 62.8549 16.7999 61.4575 16.7999H60.2735V15.0879L62.5775 12.4799H57.8095V10.3999H65.6495V12.0799L63.1215 14.9599Z" fill="white"/>
</svg>
