<svg width="152" height="69" viewBox="0 0 152 69" fill="none" xmlns="http://www.w3.org/2000/svg">
<path d="M149.6 67.1999C150.926 67.1999 152 66.1254 152 64.7999C152 63.4744 150.926 62.3999 149.6 62.3999V67.1999ZM2.4 62.3999C1.07452 62.3999 0 63.4744 0 64.7999C0 66.1254 1.07452 67.1999 2.4 67.1999V62.3999ZM2.44066 67.1999C3.76614 67.1999 4.84066 66.1254 4.84066 64.7999C4.84066 63.4744 3.76614 62.3999 2.44066 62.3999V67.1999ZM17.0794 62.3999C15.7538 62.3999 14.6794 63.4744 14.6794 64.7999C14.6794 66.1254 15.7538 67.1999 17.0794 67.1999V62.3999ZM17.1606 67.1999C18.4862 67.1999 19.5606 66.1254 19.5606 64.7999C19.5606 63.4744 18.4862 62.3999 17.1606 62.3999V67.1999ZM31.7994 62.3999C30.4738 62.3999 29.3994 63.4744 29.3994 64.7999C29.3994 66.1254 30.4738 67.1999 31.7994 67.1999V62.3999ZM31.8806 67.1999C33.2062 67.1999 34.2806 66.1254 34.2806 64.7999C34.2806 63.4744 33.2062 62.3999 31.8806 62.3999V67.1999ZM46.5194 62.3999C45.1938 62.3999 44.1194 63.4744 44.1194 64.7999C44.1194 66.1254 45.1938 67.1999 46.5194 67.1999V62.3999ZM46.6006 67.1999C47.9262 67.1999 49.0006 66.1254 49.0006 64.7999C49.0006 63.4744 47.9262 62.3999 46.6006 62.3999V67.1999ZM61.2394 62.3999C59.9138 62.3999 58.8394 63.4744 58.8394 64.7999C58.8394 66.1254 59.9138 67.1999 61.2394 67.1999V62.3999ZM61.3206 67.1999C62.6462 67.1999 63.7206 66.1254 63.7206 64.7999C63.7206 63.4744 62.6462 62.3999 61.3206 62.3999V67.1999ZM75.9594 62.3999C74.6338 62.3999 73.5594 63.4744 73.5594 64.7999C73.5594 66.1254 74.6338 67.1999 75.9594 67.1999V62.3999ZM76.0406 67.1999C77.3662 67.1999 78.4406 66.1254 78.4406 64.7999C78.4406 63.4744 77.3662 62.3999 76.0406 62.3999V67.1999ZM90.6792 62.3999C89.3536 62.3999 88.2792 63.4744 88.2792 64.7999C88.2792 66.1254 89.3536 67.1999 90.6792 67.1999V62.3999ZM90.7608 67.1999C92.0864 67.1999 93.1608 66.1254 93.1608 64.7999C93.1608 63.4744 92.0864 62.3999 90.7608 62.3999V67.1999ZM105.399 62.3999C104.074 62.3999 102.999 63.4744 102.999 64.7999C102.999 66.1254 104.074 67.1999 105.399 67.1999V62.3999ZM105.481 67.1999C106.806 67.1999 107.881 66.1254 107.881 64.7999C107.881 63.4744 106.806 62.3999 105.481 62.3999V67.1999ZM120.119 62.3999C118.794 62.3999 117.719 63.4744 117.719 64.7999C117.719 66.1254 118.794 67.1999 120.119 67.1999V62.3999ZM120.201 67.1999C121.526 67.1999 122.601 66.1254 122.601 64.7999C122.601 63.4744 121.526 62.3999 120.201 62.3999V67.1999ZM134.839 62.3999C133.514 62.3999 132.439 63.4744 132.439 64.7999C132.439 66.1254 133.514 67.1999 134.839 67.1999V62.3999ZM134.921 67.1999C136.246 67.1999 137.321 66.1254 137.321 64.7999C137.321 63.4744 136.246 62.3999 134.921 62.3999V67.1999ZM149.559 62.3999C148.234 62.3999 147.159 63.4744 147.159 64.7999C147.159 66.1254 148.234 67.1999 149.559 67.1999V62.3999ZM2.4 67.1999H2.44066V62.3999H2.4V67.1999ZM17.0794 67.1999H17.1606V62.3999H17.0794V67.1999ZM31.7994 67.1999H31.8806V62.3999H31.7994V67.1999ZM46.5194 67.1999H46.6006V62.3999H46.5194V67.1999ZM61.2394 67.1999H61.3206V62.3999H61.2394V67.1999ZM75.9594 67.1999H76.0406V62.3999H75.9594V67.1999ZM90.6792 67.1999H90.7608V62.3999H90.6792V67.1999ZM105.399 67.1999H105.481V62.3999H105.399V67.1999ZM120.119 67.1999H120.201V62.3999H120.119V67.1999ZM134.839 67.1999H134.921V62.3999H134.839V67.1999ZM149.559 67.1999H149.6V62.3999H149.559V67.1999Z" fill="#F4F5FA"/>
<path d="M76 68.8C78.2091 68.8 80 67.0092 80 64.8C80 62.5909 78.2091 60.8 76 60.8C73.7909 60.8 72 62.5909 72 64.8C72 67.0092 73.7909 68.8 76 68.8Z" fill="#EC4F89"/>
<path d="M92 16C92 28 76 38.4 76 38.4C76 38.4 60 28 60 16C60 7.16344 67.1634 0 76 0C84.8368 0 92 7.16344 92 16Z" fill="#EC4F89"/>
<path d="M80.2737 19.488V21.6H71.8094V19.92L76.1294 15.84C76.588 15.4026 76.8974 15.0294 77.0574 14.72C77.2174 14.4 77.2974 14.0854 77.2974 13.776C77.2974 13.328 77.1426 12.9866 76.8334 12.752C76.5346 12.5066 76.092 12.384 75.5054 12.384C75.0146 12.384 74.572 12.48 74.1774 12.672C73.7826 12.8534 73.452 13.1306 73.1854 13.504L71.2974 12.288C71.7346 11.6374 72.3374 11.1306 73.1054 10.768C73.8734 10.3946 74.7534 10.208 75.7454 10.208C76.5774 10.208 77.3026 10.3466 77.9214 10.624C78.5506 10.8906 79.036 11.2746 79.3774 11.776C79.7294 12.2666 79.9054 12.848 79.9054 13.52C79.9054 14.128 79.7774 14.6986 79.5214 15.232C79.2654 15.7654 78.7694 16.3734 78.0334 17.056L75.4574 19.488H80.2737Z" fill="white"/>
</svg>
