<svg width="124" height="69" viewBox="0 0 124 69" fill="none" xmlns="http://www.w3.org/2000/svg">
<path d="M3.0792 62.6001C1.75368 62.6001 0.679199 63.6746 0.679199 65.0001C0.679199 66.3256 1.75368 67.4001 3.0792 67.4001V62.6001ZM3.16048 67.4001C4.486 67.4001 5.56048 66.3256 5.56048 65.0001C5.56048 63.6746 4.486 62.6001 3.16048 62.6001V67.4001ZM17.7992 62.6001C16.4737 62.6001 15.3992 63.6746 15.3992 65.0001C15.3992 66.3256 16.4737 67.4001 17.7992 67.4001V62.6001ZM17.8805 67.4001C19.206 67.4001 20.2805 66.3256 20.2805 65.0001C20.2805 63.6746 19.206 62.6001 17.8805 62.6001V67.4001ZM32.5192 62.6001C31.1937 62.6001 30.1192 63.6746 30.1192 65.0001C30.1192 66.3256 31.1937 67.4001 32.5192 67.4001V62.6001ZM32.6005 67.4001C33.926 67.4001 35.0005 66.3256 35.0005 65.0001C35.0005 63.6746 33.926 62.6001 32.6005 62.6001V67.4001ZM47.2392 62.6001C45.9137 62.6001 44.8392 63.6746 44.8392 65.0001C44.8392 66.3256 45.9137 67.4001 47.2392 67.4001V62.6001ZM47.3205 67.4001C48.646 67.4001 49.7205 66.3256 49.7205 65.0001C49.7205 63.6746 48.646 62.6001 47.3205 62.6001V67.4001ZM61.9592 62.6001C60.6337 62.6001 59.5592 63.6746 59.5592 65.0001C59.5592 66.3256 60.6337 67.4001 61.9592 67.4001V62.6001ZM62.0405 67.4001C63.366 67.4001 64.4405 66.3256 64.4405 65.0001C64.4405 63.6746 63.366 62.6001 62.0405 62.6001V67.4001ZM76.679 62.6001C75.3534 62.6001 74.279 63.6746 74.279 65.0001C74.279 66.3256 75.3534 67.4001 76.679 67.4001V62.6001ZM76.7606 67.4001C78.0862 67.4001 79.1606 66.3256 79.1606 65.0001C79.1606 63.6746 78.0862 62.6001 76.7606 62.6001V67.4001ZM91.399 62.6001C90.0734 62.6001 88.999 63.6746 88.999 65.0001C88.999 66.3256 90.0734 67.4001 91.399 67.4001V62.6001ZM91.4806 67.4001C92.8062 67.4001 93.8806 66.3256 93.8806 65.0001C93.8806 63.6746 92.8062 62.6001 91.4806 62.6001V67.4001ZM106.119 62.6001C104.793 62.6001 103.719 63.6746 103.719 65.0001C103.719 66.3256 104.793 67.4001 106.119 67.4001V62.6001ZM106.201 67.4001C107.526 67.4001 108.601 66.3256 108.601 65.0001C108.601 63.6746 107.526 62.6001 106.201 62.6001V67.4001ZM120.839 62.6001C119.513 62.6001 118.439 63.6746 118.439 65.0001C118.439 66.3256 119.513 67.4001 120.839 67.4001V62.6001ZM120.921 67.4001C122.246 67.4001 123.321 66.3256 123.321 65.0001C123.321 63.6746 122.246 62.6001 120.921 62.6001V67.4001ZM3.0792 67.4001H3.16048V62.6001H3.0792V67.4001ZM17.7992 67.4001H17.8805V62.6001H17.7992V67.4001ZM32.5192 67.4001H32.6005V62.6001H32.5192V67.4001ZM47.2392 67.4001H47.3205V62.6001H47.2392V67.4001ZM61.9592 67.4001H62.0405V62.6001H61.9592V67.4001ZM76.679 67.4001H76.7606V62.6001H76.679V67.4001ZM91.399 67.4001H91.4806V62.6001H91.399V67.4001ZM106.119 67.4001H106.201V62.6001H106.119V67.4001ZM120.839 67.4001H120.921V62.6001H120.839V67.4001Z" fill="#F4F5FA"/>
<path d="M62 69C64.2091 69 66 67.2091 66 65C66 62.7909 64.2091 61 62 61C59.7909 61 58 62.7909 58 65C58 67.2091 59.7909 69 62 69Z" fill="#FFD15C"/>
<path d="M78 16.2C78 28.2 62 38.6 62 38.6C62 38.6 46 28.2 46 16.2C46 7.36339 53.1634 0.199951 62 0.199951C70.8368 0.199951 78 7.36339 78 16.2Z" fill="#FFD15C"/>
<path d="M67.3641 19.4481H65.5405V21.8001H63.0125V19.4481H56.9805V17.7041L62.2605 10.6001H64.9805L60.0845 17.3361H63.0925V15.2401H65.5405V17.3361H67.3641V19.4481Z" fill="white"/>
</svg>
