<svg width="32" height="32" viewBox="0 0 32 32" fill="none" xmlns="http://www.w3.org/2000/svg">
<path d="M16 32C24.8366 32 32 24.8366 32 16C32 7.16344 24.8366 0 16 0C7.16344 0 0 7.16344 0 16C0 24.8366 7.16344 32 16 32Z" fill="url(#paint0_linear_495_1248)"/>
<path fill-rule="evenodd" clip-rule="evenodd" d="M7.17446 16.0498C11.7315 14.0575 14.7776 12.7698 16.3128 12.1381C20.6505 10.3401 21.5521 10.0243 22.137 10C22.2588 10 22.5513 10.0243 22.7462 10.1701C22.8924 10.2916 22.9412 10.4616 22.9655 10.5831C22.9899 10.7046 23.0143 10.9718 22.9899 11.1905C22.7462 13.6444 21.7471 19.6456 21.211 22.3911C20.9917 23.5573 20.553 23.946 20.1387 23.9946C19.2371 24.0675 18.5304 23.3872 17.6531 22.8284C16.2884 21.9294 15.5086 21.3706 14.1683 20.496C12.6331 19.4755 13.6322 18.9167 14.5095 18.0177C14.7288 17.7748 18.7497 14.1546 18.8228 13.8145C18.8228 13.7659 18.8472 13.6201 18.7497 13.5472C18.6522 13.4744 18.5304 13.4987 18.4329 13.5229C18.2867 13.5472 16.0935 15.005 11.8289 17.872C11.1953 18.3093 10.6349 18.5037 10.1231 18.5037C9.56262 18.5037 8.49038 18.1878 7.68621 17.9206C6.71145 17.6047 5.93165 17.4346 6.00475 16.9001C6.05349 16.6329 6.44339 16.3413 7.17446 16.0498Z" fill="white"/>
<defs>
<linearGradient id="paint0_linear_495_1248" x1="0" y1="15.9884" x2="31.9768" y2="15.9884" gradientUnits="userSpaceOnUse">
<stop stop-color="#2AABEE"/>
<stop offset="1" stop-color="#229ED9"/>
</linearGradient>
</defs>
</svg>
