<svg width="44" height="50" viewBox="0 0 44 50" fill="none" xmlns="http://www.w3.org/2000/svg">
<path d="M17.2234 20.0849V18.1809C16.5707 18.0916 15.9074 18.0356 15.2302 18.0356C7.07517 18.0356 0.440918 24.6699 0.440918 32.8249C0.440918 37.8281 2.94167 42.2556 6.75492 44.9331C4.29267 42.2906 2.78242 38.7504 2.78242 34.8636C2.78242 26.8259 9.22942 20.2704 17.2234 20.0831V20.0849Z" fill="#25F4EE"/>
<path d="M17.5726 41.6204C21.2109 41.6204 24.1789 38.7259 24.3136 35.1209L24.3259 2.91912H30.2094C30.0869 2.25762 30.0204 1.57687 30.0204 0.880371H21.9844L21.9721 33.0821C21.8374 36.6889 18.8694 39.5816 15.2311 39.5816C14.1006 39.5816 13.0349 39.2981 12.0986 38.8064C13.3271 40.5074 15.3204 41.6221 17.5744 41.6221L17.5726 41.6204Z" fill="#25F4EE"/>
<path d="M41.1981 13.8483V12.058C38.9546 12.058 36.8634 11.3913 35.1099 10.2485C36.6709 12.0405 38.7919 13.3338 41.1981 13.8483Z" fill="#25F4EE"/>
<path d="M35.1127 10.2484C33.4029 8.28493 32.3634 5.72118 32.3634 2.91943H30.2109C30.7779 5.98018 32.5944 8.60693 35.1127 10.2484Z" fill="#FE2C55"/>
<path d="M15.2296 26.0722C11.5056 26.0722 8.47461 29.1015 8.47461 32.8272C8.47461 35.4207 9.94636 37.6747 12.0954 38.8052C11.2939 37.6957 10.8161 36.336 10.8161 34.866C10.8161 31.142 13.8471 28.111 17.5711 28.111C18.2659 28.111 18.9326 28.2265 19.5644 28.4225V20.2202C18.9116 20.131 18.2484 20.075 17.5711 20.075C17.4539 20.075 17.3384 20.082 17.2211 20.0837V26.3837C16.5911 26.186 15.9226 26.0722 15.2279 26.0722H15.2296Z" fill="#FE2C55"/>
<path d="M41.1984 13.8474V20.0932C37.0316 20.0932 33.1711 18.7597 30.0194 16.4987V32.8279C30.0194 40.9829 23.3851 47.6172 15.2301 47.6172C12.0784 47.6172 9.15588 46.6232 6.75488 44.9362C9.45688 47.8359 13.3051 49.6559 17.5734 49.6559C25.7284 49.6559 32.3626 43.0217 32.3626 34.8667V18.5374C35.5144 20.8002 39.3749 22.1319 43.5416 22.1319V14.0959C42.7384 14.0959 41.9544 14.0084 41.2001 13.8474H41.1984Z" fill="#FE2C55"/>
<path d="M30.0192 32.827V16.4977C33.171 18.7605 37.0315 20.0922 41.1982 20.0922V13.8465C38.792 13.332 36.671 12.0387 35.11 10.2467C32.5917 8.60522 30.7752 5.97847 30.2082 2.91772H24.3247L24.3125 35.1195C24.1777 38.7262 21.2097 41.619 17.5715 41.619C15.3175 41.619 13.3242 40.506 12.0957 38.8032C9.94497 37.671 8.47498 35.4187 8.47498 32.8252C8.47498 29.1012 11.506 26.0702 15.23 26.0702C15.9247 26.0702 16.5915 26.1857 17.2232 26.3817V20.0817C9.22923 20.269 2.78223 26.8245 2.78223 34.8622C2.78223 38.7507 4.29248 42.2892 6.75473 44.9317C9.15748 46.6187 12.0782 47.6127 15.23 47.6127C23.385 47.6127 30.0192 40.9785 30.0192 32.8235V32.827Z" fill="black"/>
</svg>
